<svg xmlns="http://www.w3.org/2000/svg" viewBox="0 0 106 30"><defs><style>.a{fill:#fff;}</style></defs><title>Artboard 1</title><path class="a" d="M7.46,5.64a5.69,5.69,0,0,1,5.82,6,5.67,5.67,0,0,1-5.82,6h-4v6H.89v-18Zm0,9.42a3.19,3.19,0,0,0,3.26-3.39A3.2,3.2,0,0,0,7.46,8.26h-4v6.8Z"/><path class="a" d="M18,14.49h3a3.06,3.06,0,0,0,3.26-3.13A3.05,3.05,0,0,0,21,8.26h-4V23.61H14.49v-18H21a5.56,5.56,0,0,1,5.85,5.72,5.41,5.41,0,0,1-4.64,5.5l5.67,6.75H24.55L18,15.73Z"/><path class="a" d="M30.19,8.13a9.08,9.08,0,0,1,13,0,9.23,9.23,0,0,1,0,13,9.08,9.08,0,0,1-13,0,9.23,9.23,0,0,1,0-13ZM41.31,10a6.61,6.61,0,0,0-4.65-2,6.42,6.42,0,0,0-4.59,2,6.55,6.55,0,0,0,0,9.29,6.46,6.46,0,0,0,4.59,1.95A6.6,6.6,0,0,0,41.31,10Z"/><path class="a" d="M48.34,5.67l4.87,6.72,4.91-6.72h3.15l-6.49,9c1.92,2.65,4.77,6.55,6.49,8.94H58.12l-4.91-6.73-4.87,6.73H45.15l6.5-8.94C49.72,12,46.8,8,45.15,5.67Z"/><path class="a" d="M70.77,8.23H67.43V21h3.34v2.6H61.5V21h3.34V8.23H61.5V5.67h9.27Z"/><path class="a" d="M74.72,23.61H72.13v-18h2.1l5.93,8.73,5.93-8.73h2v18H85.58V11l-4.7,7H79.42l-4.7-7Z"/><path class="a" d="M100.07,18.32H93.63c-.69,1.64-1.59,3.8-2.15,5.29h-2.8l7.21-18.2h1.9L105,23.61h-2.77Zm-5.46-2.44h4.46l-2.2-6.34Z"/></svg>