<?xml version="1.0" encoding="utf-8"?>
<!-- Generator: Adobe Illustrator 22.1.0, SVG Export Plug-In . SVG Version: 6.00 Build 0)  -->
<svg version="1.1" id="Layer_1" xmlns="http://www.w3.org/2000/svg" xmlns:xlink="http://www.w3.org/1999/xlink" x="0px" y="0px"
	 viewBox="0 0 106 30" style="enable-background:new 0 0 106 30;" xml:space="preserve">
<style type="text/css">
	.st0{fill:#377EEF;}
</style>
<title>Artboard 1</title>
<path class="st0" d="M7.5,5.6c3.1-0.1,5.8,2.4,5.8,5.5c0,0.2,0,0.3,0,0.5c0.2,3.1-2.2,5.8-5.3,6c-0.2,0-0.3,0-0.5,0h-4v6H0.9v-18
	L7.5,5.6z M7.5,15.1c1.8,0,3.2-1.4,3.3-3.1c0-0.1,0-0.2,0-0.3c0.1-1.8-1.2-3.3-3-3.4c-0.1,0-0.2,0-0.3,0h-4v6.8L7.5,15.1z"/>
<path class="st0" d="M18,14.5h3c1.7,0.1,3.1-1.2,3.3-2.9c0-0.1,0-0.2,0-0.3c0-1.7-1.3-3.1-3-3.1c-0.1,0-0.2,0-0.3,0h-4v15.4h-2.5
	v-18H21c3.1-0.2,5.7,2.2,5.8,5.3c0,0.2,0,0.3,0,0.5c0.1,2.7-1.9,5.1-4.6,5.5l5.7,6.8h-3.3L18,15.7V14.5z"/>
<path class="st0" d="M30.2,8.1C33.7,4.5,39.4,4.5,43,8c0.1,0.1,0.1,0.1,0.2,0.2c3.6,3.6,3.6,9.4,0,13c-3.5,3.6-9.3,3.7-12.8,0.2
	c-0.1-0.1-0.1-0.1-0.2-0.2C26.6,17.5,26.6,11.7,30.2,8.1z M41.3,10c-1.2-1.3-2.9-2-4.7-2c-1.7,0-3.4,0.7-4.6,2
	c-2.6,2.6-2.6,6.7,0,9.3c0,0,0,0,0,0c1.2,1.2,2.9,1.9,4.6,2c3.6,0,6.6-3,6.6-6.6C43.2,12.9,42.5,11.2,41.3,10z"/>
<path class="st0" d="M48.3,5.7l4.9,6.7l4.9-6.7h3.2l-6.5,9c1.9,2.6,4.8,6.6,6.5,8.9h-3.1l-4.9-6.7l-4.9,6.7h-3.2l6.5-8.9
	c-1.9-2.7-4.9-6.7-6.5-9H48.3z"/>
<path class="st0" d="M70.8,8.2h-3.3V21h3.3v2.6h-9.3V21h3.3V8.2h-3.3V5.7h9.3L70.8,8.2z"/>
<path class="st0" d="M74.7,23.6h-2.6v-18h2.1l5.9,8.7l5.9-8.7h2v18h-2.5V11l-4.7,7h-1.5l-4.7-7V23.6z"/>
<path class="st0" d="M100.1,18.3h-6.4c-0.7,1.6-1.6,3.8-2.2,5.3h-2.8l7.2-18.2h1.9l7.2,18.2h-2.8L100.1,18.3z M94.6,15.9h4.5
	l-2.2-6.3L94.6,15.9z"/>
</svg>
