<?xml version="1.0" encoding="utf-8"?>
<!-- Generator: Adobe Illustrator 22.1.0, SVG Export Plug-In . SVG Version: 6.00 Build 0)  -->
<svg version="1.1" id="Layer_1" xmlns="http://www.w3.org/2000/svg" xmlns:xlink="http://www.w3.org/1999/xlink" x="0px" y="0px"
	 viewBox="0 0 22.8 30" style="enable-background:new 0 0 22.8 30;" xml:space="preserve">
<style type="text/css">
	.st0{fill:#377EEF;}
</style>
<title>Artboard 1</title>
<path class="st0" d="M12,0.5c5-0.2,9.3,3.9,9.3,8.9c0,0.3,0,0.5,0,0.8c0.3,5-3.5,9.3-8.5,9.7c-0.3,0-0.5,0-0.8,0H5.6v9.7H1.4v-29
	L12,0.5z M12,15.8c2.9,0,5.2-2.3,5.3-5c0-0.2,0-0.3,0-0.5c0.2-2.9-1.9-5.3-4.8-5.5c-0.2,0-0.3,0-0.5,0H5.6v11L12,15.8z"/>
</svg>
